<svg class="svg-icon" style="width: 1em;height: 1em;vertical-align: middle;fill: currentColor;overflow: hidden;" viewBox="0 0 1024 1024" version="1.1" xmlns="http://www.w3.org/2000/svg"><path d="M906.141393 841.724207c0.014222-38.76883-5.688889-77.326222-16.924445-114.430103a394.704593 394.704593 0 0 0-195.100444-235.414756 241.682963 241.682963 0 0 0 61.014281-161.202252 241.8944 241.8944 0 0 0-71.315911-172.172326 241.895348 241.895348 0 0 0-172.171378-71.315911 241.885867 241.885867 0 0 0-172.172326 71.315911 241.8944 241.8944 0 0 0-71.315911 172.172326 241.681067 241.681067 0 0 0 61.09203 161.29043 394.15277 394.15277 0 0 0-55.79283 35.400059 395.889778 395.889778 0 0 0-82.631111 84.973037 392.004267 392.004267 0 0 0-56.775111 115.13363 394.467556 394.467556 0 0 0-16.763259 114.251852v26.055111c0.043615 37.684148 30.58157 68.223052 68.266666 68.266666h652.325926c37.685096-0.043615 68.223052-30.582519 68.266667-68.266666v-26.057008h-0.002844z m-394.500741-693.854814c100.799526 0 182.802963 82.005333 182.802963 182.802963 0 100.796681-82.006281 182.802963-182.802963 182.802963s-182.802963-82.00723-182.802963-182.802963c0-100.796681 82.002489-182.802015 182.802963-182.802963z m333.819259 719.910874a7.594667 7.594667 0 0 1-7.585185 7.585185h-652.325926a7.595615 7.595615 0 0 1-7.585185-7.585185v-26.0864a332.363852 332.363852 0 0 1 9.054815-77.053156 332.854993 332.854993 0 0 1 8.982755-30.931437 330.349985 330.349985 0 0 1 11.851852-29.750044 334.501926 334.501926 0 0 1 171.599644-168.727704 241.813807 241.813807 0 0 0 132.191763 38.932859 241.809067 241.809067 0 0 0 132.278993-38.989748 333.60877 333.60877 0 0 1 171.81203 168.785541 332.545896 332.545896 0 0 1 20.726518 60.681481 333.541452 333.541452 0 0 1 8.997926 77.084445v26.054163z" fill="#333333" /></svg>