<?xml version="1.0" encoding="utf-8"?>
<!-- Generator: Adobe Illustrator 27.0.1, SVG Export Plug-In . SVG Version: 6.00 Build 0)  -->
<svg version="1.2" baseProfile="tiny" id="Layer_1" xmlns="http://www.w3.org/2000/svg" xmlns:xlink="http://www.w3.org/1999/xlink"
	 x="0px" y="0px" viewBox="0 0 21 21" overflow="visible" xml:space="preserve">
<path fill="#E2BF5F" d="M12.28,16.22c-1.25,0-2.51,0-3.76,0c-0.38,0-0.44-0.07-0.31-0.44c1.52-4.21,3.04-8.42,4.55-12.63
	c0.09-0.25,0.17-0.49,0.27-0.73c0.17-0.41,0.42-0.58,0.86-0.53c0.23,0.03,0.46,0.02,0.69,0.03c0.19,0.01,0.28,0.05,0.19,0.29
	c-1.3,3.55-2.58,7.11-3.87,10.66c-0.18,0.51-0.36,1.01-0.56,1.52c-0.08,0.2-0.05,0.26,0.18,0.26c2.04-0.01,4.08,0,6.12,0
	c0.31,0,0.33,0,0.23,0.31c-0.1,0.33-0.23,0.64-0.34,0.97c-0.07,0.22-0.21,0.3-0.44,0.29C14.82,16.22,13.55,16.22,12.28,16.22z"/>
<path fill="#E2BF5F" d="M12.17,13.34c0.22-0.62,0.43-1.24,0.65-1.86c1.04-2.87,2.08-5.74,3.12-8.62c0.07-0.18,0.13-0.37,0.21-0.55
	c0.14-0.33,0.43-0.48,0.78-0.41c0.2,0.04,0.39,0.02,0.59,0.03c0.36,0.01,0.4,0.05,0.28,0.38c-1.06,2.95-2.13,5.9-3.19,8.85
	c-0.07,0.21-0.15,0.41-0.23,0.64c0.25,0,0.47,0,0.69,0c0.95,0,1.9,0,2.85,0c0.16,0,0.21,0.02,0.16,0.2
	c-0.09,0.39-0.23,0.75-0.38,1.11c-0.07,0.18-0.2,0.25-0.38,0.25c-1.7,0-3.41,0-5.11-0.01C12.2,13.36,12.19,13.36,12.17,13.34z"/>
<path fill="#405496" d="M4.59,6.3c-0.16,0-0.31,0-0.45,0c-0.97,0-1.95,0-2.92,0c-0.17,0-0.22-0.02-0.17-0.21
	c0.09-0.39,0.24-0.76,0.39-1.13C1.49,4.79,1.63,4.74,1.8,4.74c1.57,0,3.15,0,4.72,0c0.16,0,0.2,0.07,0.19,0.21
	c0,0.11-0.04,0.21-0.08,0.31C5.36,8.78,4.09,12.3,2.82,15.84c-0.09,0.25-0.23,0.37-0.5,0.35C2,16.17,1.69,16.2,1.38,16.18
	c-0.3-0.02-0.32-0.06-0.21-0.34c1.12-3.1,2.23-6.2,3.35-9.3C4.54,6.46,4.56,6.39,4.59,6.3z"/>
<path fill="#405496" d="M10.9,4.74c-0.05,0.49-0.23,0.92-0.41,1.36c-0.06,0.14-0.17,0.22-0.33,0.21c-0.07,0-0.13,0-0.2-0.01
	c-0.4-0.03-0.6,0.07-0.74,0.45c-0.4,1.09-0.8,2.19-1.19,3.29c-0.66,1.84-1.31,3.67-1.97,5.51c-0.04,0.11-0.09,0.23-0.15,0.34
	c-0.11,0.2-0.27,0.32-0.51,0.32c-0.32-0.01-0.64-0.01-0.96-0.01c-0.12,0-0.16-0.06-0.16-0.16c0-0.1,0.02-0.19,0.05-0.29
	c1.26-3.5,2.53-7,3.79-10.49c0.03-0.08,0.05-0.16,0.07-0.23c0.06-0.17,0.17-0.27,0.37-0.27C9.34,4.74,10.11,4.74,10.9,4.74z"/>
<path fill="#405496" d="M2.31,3.42C1.83,3.4,1.89,3.38,2.03,3.01c0.1-0.26,0.2-0.52,0.28-0.78c0.08-0.27,0.25-0.36,0.51-0.35
	c0.82,0.01,1.64,0,2.46,0c2.09,0,4.17,0,6.26,0.01c0.42,0,0.45,0.02,0.32,0.42c-0.09,0.27-0.2,0.53-0.29,0.81
	c-0.08,0.25-0.23,0.34-0.49,0.34C9.67,3.44,2.36,3.43,2.31,3.42z"/>
<path fill="#405496" d="M18.1,19.24c0.23,0.25,0.47,0.29,0.76,0.11c0.1-0.07,0.16-0.07,0.23,0.03c0.09,0.12-0.02,0.16-0.08,0.21
	c-0.29,0.24-0.74,0.23-1.07-0.04c-0.21-0.17-0.42-0.29-0.69-0.37c-0.67-0.19-1.02-0.85-0.86-1.52c0.15-0.65,0.8-1.06,1.51-0.96
	c0.62,0.09,1.04,0.51,1.12,1.12c0.08,0.57-0.23,1.1-0.78,1.34C18.19,19.18,18.12,19.18,18.1,19.24z M17.69,18.93
	c0.56,0,0.97-0.4,0.97-0.95c0-0.56-0.41-0.96-0.98-0.96c-0.56,0-0.96,0.41-0.96,0.96C16.72,18.53,17.13,18.93,17.69,18.93z"/>
<path fill="#405496" d="M11.84,19.26c-0.77,0-1.35-0.57-1.34-1.3c0.01-0.73,0.58-1.27,1.34-1.27c0.77,0,1.34,0.55,1.34,1.3
	C13.17,18.72,12.6,19.26,11.84,19.26z M11.86,17.02c-0.56,0-0.98,0.39-0.99,0.93c-0.01,0.56,0.4,0.98,0.97,0.98
	c0.56,0,0.97-0.39,0.97-0.95C12.82,17.43,12.41,17.02,11.86,17.02z"/>
<path fill="#405496" d="M15.81,17.59c0,0.23,0.01,0.46,0,0.69c-0.02,0.58-0.39,0.95-0.96,0.98c-0.64,0.03-1.08-0.26-1.14-0.86
	c-0.05-0.52-0.02-1.04-0.03-1.57c0-0.17,0.13-0.1,0.21-0.11c0.11-0.02,0.16,0.03,0.16,0.15c0,0.47-0.01,0.95,0.01,1.42
	c0.02,0.42,0.25,0.63,0.66,0.64c0.46,0.01,0.72-0.23,0.73-0.7c0.01-0.44,0.01-0.88,0-1.32c0-0.15,0.04-0.19,0.19-0.19
	c0.15,0,0.17,0.07,0.17,0.19C15.8,17.13,15.81,17.36,15.81,17.59C15.81,17.59,15.81,17.59,15.81,17.59z"/>
<path fill="#405496" d="M9.27,16.69c0.23-0.01,0.45,0.04,0.67,0.13c0.12,0.05,0.16,0.1,0.11,0.24c-0.06,0.14-0.12,0.1-0.22,0.06
	c-0.24-0.11-0.49-0.14-0.74-0.1c-0.2,0.03-0.37,0.11-0.39,0.34c-0.02,0.23,0.14,0.32,0.32,0.37c0.21,0.07,0.43,0.11,0.64,0.17
	c0.38,0.12,0.56,0.33,0.55,0.65c-0.01,0.33-0.25,0.59-0.62,0.66c-0.41,0.08-0.8,0.03-1.16-0.17c-0.12-0.07-0.16-0.13-0.09-0.27
	c0.08-0.16,0.15-0.06,0.23-0.01c0.27,0.16,0.57,0.2,0.88,0.16c0.2-0.03,0.37-0.1,0.4-0.33c0.03-0.23-0.14-0.31-0.32-0.37
	c-0.18-0.06-0.36-0.1-0.54-0.15c-0.48-0.13-0.69-0.37-0.65-0.73c0.04-0.37,0.34-0.62,0.8-0.66C9.17,16.69,9.22,16.69,9.27,16.69z"/>
<g>
</g>
<g>
</g>
<g>
</g>
<g>
</g>
<g>
</g>
<g>
</g>
<g>
</g>
<g>
</g>
<g>
</g>
<g>
</g>
<g>
</g>
<g>
</g>
<g>
</g>
<g>
</g>
<g>
</g>
</svg>
